# xmcd
#
# Track frame offsets:
#	150
#	14549
#	31558
#	49118
#	67731
#	86379
#	97260
#	116006
#	129056
#	145871
#	165156
#	183484
#	201738
#	213660
#	235546
#	248281
#	265587
#	285088
#	297487
#	308936
#
# Disc length: 4412 seconds
#
# Revision: 1
# Processed by: cddbd v1.5.2PL0 Copyright (c) Steve Scherf et al.
# Submitted via: audiograbber 1.83.01
#
DISCID=0b113a14
DTITLE=Various Artist - The Best Rythm and Blues CD2
DYEAR=2010
DGENRE=Blues
TTITLE0=The Blues Brothers - Expressway To Your heart
TTITLE1=The Blues Brothers - Peter Gunn Theme
TTITLE2=The Blues Brothers - Sweet Home Chicago
TTITLE3=The Blues Brothers - Funky Nassau
TTITLE4=B.B. King - When It All Comes Down
TTITLE5=Ray Charles - Don't Set Me Free
TTITLE6=The Blues Brothers - I Don't Know
TTITLE7=Muddy Watters - Mannish Boy
TTITLE8=Raveling Blues - The House Of The Rising Sun
TTITLE9=Johnny Winter - Shame Shame Shame
TTITLE10=The Blues Brothers - She Caught The Katy
TTITLE11=Robert Cray - Smoking Gun
TTITLE12=The Blues Brothers - Almost
TTITLE13=john Lee Hooker - Bluebird
TTITLE14=B.B. King and Gary Moore - Since I Met You Baby
TTITLE15=J.J. Cale and Eric Clapton - Last Will And Testament
TTITLE16=B.B. King and Eric Clapton - Riding With The King
TTITLE17=Ray Charles - Hallelujah I Love Her So
TTITLE18=Little Water Juke - My Babe
TTITLE19=john Lee Hooker - Never Get Out Of This Blues Alive
EXTD=antenna5 and Marma Records
EXTT0=
EXTT1=
EXTT2=
EXTT3=
EXTT4=
EXTT5=
EXTT6=
EXTT7=
EXTT8=
EXTT9=
EXTT10=
EXTT11=
EXTT12=
EXTT13=
EXTT14=
EXTT15=
EXTT16=
EXTT17=
EXTT18=
EXTT19=
PLAYORDER=
